<svg width="2600" height="1042" viewBox="0 0 2600 1042" fill="none" xmlns="http://www.w3.org/2000/svg">
<path d="M2507.93 737.809V680.964H2472.7V737.809H2307.77C2262.93 737.809 2239.71 714.591 2239.71 669.755V552.861H2331.79V584.887H2380.62V552.861H2472.7V600.9H2507.93V552.861H2600V737.809H2507.93ZM2239.71 753.822H2331.79V771.436H2507.93V753.822H2600V917.954H2319.78C2266.93 917.954 2239.71 890.732 2239.71 837.89V753.822ZM2507.93 851.901V833.486H2331.79C2332.19 846.697 2337.79 851.901 2351.8 851.901H2507.93ZM2380.62 677.761V640.932H2331.79V665.752C2331.79 672.157 2337.39 677.761 2343.79 677.761H2380.62Z" fill="#2D2D2D"/>
<path d="M2099.68 809.865V741.41H2060.85C2050.44 769.433 2023.62 789.849 1983.19 789.849H1909.53C1857.48 789.849 1827.46 755.422 1827.46 715.39C1827.46 675.357 1857.48 640.93 1909.53 640.93H1983.19C2010.41 640.93 2032.02 650.538 2046.04 665.349H2099.68V552.859H2191.75V809.865H2099.68ZM1831.46 801.859H1923.54V825.878C1923.54 840.29 1933.14 849.897 1947.56 849.897H2195.76V917.952H1919.53C1866.69 917.952 1831.46 882.724 1831.46 829.881V801.859ZM1827.46 560.866H1900.32V540.85H1992.39V560.866H2065.25V628.92H1827.46V560.866ZM1919.93 715.39C1919.93 722.195 1924.74 725.798 1931.54 725.798H1961.17C1967.97 725.798 1972.78 722.195 1972.78 715.39C1972.78 708.584 1967.97 704.981 1961.17 704.981H1931.54C1924.74 704.981 1919.93 708.584 1919.93 715.39Z" fill="#2D2D2D"/>
<path d="M1375.57 837.889H1647.79V552.86H1739.86V917.953H1375.57V837.889ZM1375.57 679.762V658.945C1375.57 592.892 1422.81 548.857 1494.06 548.857C1565.32 548.857 1612.56 592.892 1612.56 658.945V679.762C1612.56 745.815 1565.32 789.85 1494.06 789.85C1422.81 789.85 1375.57 745.815 1375.57 679.762ZM1494.06 709.786C1510.08 709.786 1520.49 701.78 1520.49 687.768V650.939C1520.49 636.928 1510.08 628.921 1494.06 628.921C1478.05 628.921 1467.64 636.928 1467.64 650.939V687.768C1467.64 701.78 1478.05 709.786 1494.06 709.786Z" fill="#2D2D2D"/>
<path d="M1071.31 669.755H1331.52V745.816H1043.29C990.446 745.816 955.217 710.588 955.217 657.745V552.861H1331.52V628.922H1047.29V645.736C1047.29 660.147 1056.9 669.755 1071.31 669.755ZM955.217 841.893V765.832H1331.52V841.893H1189.41V917.954H1097.33V841.893H955.217Z" fill="#2D2D2D"/>
<path d="M538.869 837.89H680.982V781.845H626.939C574.097 781.845 538.869 746.616 538.869 693.774V552.861H915.17V781.845H773.056V837.89H915.17V917.954H538.869V837.89ZM630.942 681.764C630.942 696.176 640.55 705.784 654.962 705.784H823.096V628.922H630.942V681.764Z" fill="#2D2D2D"/>
<path d="M27.5246 267.145C-10.2745 250.31 -8.80364 196.022 29.8512 181.27L496.874 3.0385C508.33 -1.33329 521.046 -0.975379 532.239 4.03388L997.308 212.172C1034.93 229.011 1033.56 283.027 995.132 297.925L532.7 477.19C521.216 481.642 508.437 481.328 497.185 476.316L27.5246 267.145Z" fill="#2D2D2D"/>
<path d="M0.772961 708.441V224.28C0.772961 200.227 20.2198 180.728 44.2086 180.728C68.1975 180.728 87.6443 200.227 87.6443 224.28V708.441C87.6443 732.494 68.1975 751.993 44.2086 751.993C20.2198 751.993 0.772961 732.494 0.772961 708.441Z" fill="#2D2D2D"/>
<path d="M8.03486 692.436C17.65 670.399 43.2603 660.351 65.2379 669.992L447.472 837.669L448.494 838.133C469.758 848.112 479.32 873.334 469.856 895.026C460.391 916.719 435.426 926.795 413.685 917.909L412.652 917.471L30.4186 749.793C8.44108 740.152 -1.58033 714.473 8.03486 692.436Z" fill="#2D2D2D"/>
<path d="M160.761 506.647L329.386 588.557V1041.69L235.276 895.026L160.761 932.317V506.647Z" fill="#FF8400"/>
</svg>
