<svg width="2062" height="1583" viewBox="0 0 2062 1583" fill="none" xmlns="http://www.w3.org/2000/svg">
<path d="M1969.06 1401.95V1345.11H1933.83V1401.95H1768.9C1724.06 1401.95 1700.84 1378.74 1700.84 1333.9V1217.01H1792.92V1249.03H1841.76V1217.01H1933.83V1265.04H1969.06V1217.01H2061.13V1401.95H1969.06ZM1700.84 1417.97H1792.92V1435.58H1969.06V1417.97H2061.13V1582.1H1780.91C1728.06 1582.1 1700.84 1554.88 1700.84 1502.03V1417.97ZM1969.06 1516.05V1497.63H1792.92C1793.32 1510.84 1798.92 1516.05 1812.93 1516.05H1969.06ZM1841.76 1341.91V1305.08H1792.92V1329.9C1792.92 1336.3 1798.52 1341.91 1804.93 1341.91H1841.76Z" fill="#2D2D2D"/>
<path d="M1560.81 1474.01V1405.56H1521.98C1511.57 1433.58 1484.75 1453.99 1444.32 1453.99H1370.66C1318.62 1453.99 1288.59 1419.57 1288.59 1379.53C1288.59 1339.5 1318.62 1305.07 1370.66 1305.07H1444.32C1471.54 1305.07 1493.16 1314.68 1507.17 1329.49H1560.81V1217H1652.88V1474.01H1560.81ZM1292.6 1466H1384.67V1490.02C1384.67 1504.43 1394.28 1514.04 1408.69 1514.04H1656.89V1582.1H1380.67C1327.82 1582.1 1292.6 1546.87 1292.6 1494.03V1466ZM1288.59 1225.01H1361.45V1204.99H1453.52V1225.01H1526.38V1293.07H1288.59V1225.01ZM1381.07 1379.53C1381.07 1386.34 1385.87 1389.94 1392.68 1389.94H1422.3C1429.1 1389.94 1433.91 1386.34 1433.91 1379.53C1433.91 1372.73 1429.1 1369.13 1422.3 1369.13H1392.68C1385.87 1369.13 1381.07 1372.73 1381.07 1379.53Z" fill="#2D2D2D"/>
<path d="M836.701 1502.03H1108.92V1217.01H1200.99V1582.1H836.701V1502.03ZM836.701 1343.91V1323.09C836.701 1257.04 883.938 1213 955.196 1213C1026.45 1213 1073.69 1257.04 1073.69 1323.09V1343.91C1073.69 1409.96 1026.45 1454 955.196 1454C883.938 1454 836.701 1409.96 836.701 1343.91ZM955.196 1373.93C971.208 1373.93 981.617 1365.92 981.617 1351.91V1315.08C981.617 1301.07 971.208 1293.07 955.196 1293.07C939.183 1293.07 928.775 1301.07 928.775 1315.08V1351.91C928.775 1365.92 939.183 1373.93 955.196 1373.93Z" fill="#2D2D2D"/>
<path d="M532.442 1333.9H792.651V1409.96H504.42C451.577 1409.96 416.349 1374.73 416.349 1321.89V1217.01H792.651V1293.07H508.423V1309.88C508.423 1324.29 518.03 1333.9 532.442 1333.9ZM416.349 1506.04V1429.98H792.651V1506.04H650.537V1582.1H558.463V1506.04H416.349Z" fill="#2D2D2D"/>
<path d="M0 1502.03H142.114V1445.99H88.0706C35.2282 1445.99 0 1410.76 0 1357.92V1217.01H376.302V1445.99H234.188V1502.03H376.302V1582.1H0V1502.03ZM92.0738 1345.91C92.0738 1360.32 101.682 1369.93 116.093 1369.93H284.228V1293.07H92.0738V1345.91Z" fill="#2D2D2D"/>
<path d="M511.702 286.609C471.247 268.547 472.821 210.305 514.193 194.478L1014.03 3.25989C1026.29 -1.43043 1039.9 -1.04644 1051.88 4.32778L1549.63 227.631C1589.9 245.696 1588.44 303.648 1547.3 319.631L1052.38 511.958C1040.09 516.734 1026.41 516.397 1014.37 511.02L511.702 286.609Z" fill="#2D2D2D"/>
<path d="M483.071 760.057V240.621C483.071 214.815 503.884 193.895 529.559 193.895C555.233 193.895 576.047 214.815 576.047 240.621V500.339V760.057C576.047 785.863 555.233 806.783 529.559 806.783C503.884 806.783 483.071 785.863 483.071 760.057Z" fill="#2D2D2D"/>
<path d="M490.843 742.886C501.134 719.244 528.544 708.463 552.066 718.807L1028.42 937.589L1029.51 938.087C1052.27 948.793 1062.51 975.853 1052.38 999.125C1042.25 1022.4 1015.53 1033.21 992.259 1023.67L991.154 1023.2L514.8 804.422C491.278 794.079 480.552 766.528 490.843 742.886Z" fill="#2D2D2D"/>
<path d="M654.301 543.56L834.776 631.439V1117.59L734.052 960.237L654.301 1000.24V543.56Z" fill="#FF8400"/>
<path d="M1479.99 754.936C1503.1 746.012 1529.08 757.491 1538.02 780.573C1546.95 803.655 1535.46 829.605 1512.35 838.53L1031.66 1024.17C1008.55 1033.1 982.572 1021.62 973.636 998.534C964.701 975.452 976.194 949.503 999.304 940.577L1479.99 754.936Z" fill="#2D2D2D"/>
</svg>
