<svg width="1097" height="1118" viewBox="0 0 1097 1118" fill="none" xmlns="http://www.w3.org/2000/svg">
<path d="M29.4588 286.609C-10.9965 268.547 -9.42229 210.305 31.9489 194.478L531.79 3.25989C544.051 -1.43043 557.66 -1.04644 569.64 4.32778L1067.39 227.631C1107.66 245.696 1106.19 303.648 1065.06 319.631L570.133 511.958C557.842 516.734 544.166 516.397 532.123 511.02L29.4588 286.609Z" fill="#2D2D2D"/>
<path d="M0.827266 760.057V240.621C0.827266 214.815 21.6406 193.895 47.3152 193.895C72.9898 193.895 93.8031 214.815 93.8031 240.621V500.339V760.057C93.8031 785.863 72.9898 806.783 47.3152 806.783C21.6406 806.783 0.827266 785.863 0.827266 760.057Z" fill="#2D2D2D"/>
<path d="M8.59947 742.886C18.8903 719.244 46.3003 708.463 69.8222 718.807L546.176 937.589L547.27 938.087C570.029 948.793 580.263 975.853 570.133 999.125C560.003 1022.4 533.284 1033.21 510.015 1023.67L508.91 1023.2L32.5562 804.422C9.03424 794.079 -1.69139 766.528 8.59947 742.886Z" fill="#2D2D2D"/>
<path d="M172.058 543.56L352.532 631.439V1117.59L251.809 960.237L172.058 1000.24V543.56Z" fill="#FF8400"/>
<path d="M997.746 754.936C1020.86 746.012 1046.84 757.491 1055.77 780.573C1064.71 803.655 1053.22 829.605 1030.11 838.53L549.419 1024.17C526.309 1033.1 500.328 1021.62 491.392 998.534C482.457 975.452 493.95 949.503 517.06 940.577L997.746 754.936Z" fill="#2D2D2D"/>
</svg>
